<?xml version="1.0" encoding="utf-8"?>
<svg viewBox="0 0 72 216" xmlns="http://www.w3.org/2000/svg">
  <title>Bastow Little Bob Minimus</title>
  <defs>
    <style type="text/css"><![CDATA[text { font-family: Courier New; font-size: 9pt; fill: black; text-anchor: middle; }polyline { fill: none; }.left-text { text-anchor: start; }.place-bell { fill: none; stroke: black; stroke-width: 1pt; }]]></style>
  </defs>
  <text x="15" y="33" dy="2pt">1</text>
  <text x="29" y="33" dy="2pt">2</text>
  <text x="43" y="33" dy="2pt">3</text>
  <text x="57" y="33" dy="2pt">4</text>
  <text x="15" y="47" dy="2pt">2</text>
  <text x="29" y="47" dy="2pt">1</text>
  <text x="43" y="47" dy="2pt">4</text>
  <text x="57" y="47" dy="2pt">3</text>
  <text x="15" y="61" dy="2pt">2</text>
  <text x="29" y="61" dy="2pt">1</text>
  <text x="43" y="61" dy="2pt">3</text>
  <text x="57" y="61" dy="2pt">4</text>
  <text x="15" y="75" dy="2pt">1</text>
  <text x="29" y="75" dy="2pt">2</text>
  <text x="43" y="75" dy="2pt">4</text>
  <text x="57" y="75" dy="2pt">3</text>
  <text x="15" y="89" dy="2pt">1</text>
  <text x="29" y="89" dy="2pt">4</text>
  <text x="43" y="89" dy="2pt">2</text>
  <text x="57" y="89" dy="2pt">3</text>
  <polyline stroke="Black" stroke-width="1" points="8,82 64,82" />
  <text x="15" y="103" dy="2pt">4</text>
  <text x="29" y="103" dy="2pt">1</text>
  <text x="43" y="103" dy="2pt">3</text>
  <text x="57" y="103" dy="2pt">2</text>
  <text x="15" y="117" dy="2pt">4</text>
  <text x="29" y="117" dy="2pt">1</text>
  <text x="43" y="117" dy="2pt">2</text>
  <text x="57" y="117" dy="2pt">3</text>
  <text x="15" y="131" dy="2pt">1</text>
  <text x="29" y="131" dy="2pt">4</text>
  <text x="43" y="131" dy="2pt">3</text>
  <text x="57" y="131" dy="2pt">2</text>
  <text x="15" y="145" dy="2pt">1</text>
  <text x="29" y="145" dy="2pt">3</text>
  <text x="43" y="145" dy="2pt">4</text>
  <text x="57" y="145" dy="2pt">2</text>
  <polyline stroke="Black" stroke-width="1" points="8,138 64,138" />
  <text x="15" y="159" dy="2pt">3</text>
  <text x="29" y="159" dy="2pt">1</text>
  <text x="43" y="159" dy="2pt">2</text>
  <text x="57" y="159" dy="2pt">4</text>
  <text x="15" y="173" dy="2pt">3</text>
  <text x="29" y="173" dy="2pt">1</text>
  <text x="43" y="173" dy="2pt">4</text>
  <text x="57" y="173" dy="2pt">2</text>
  <text x="15" y="187" dy="2pt">1</text>
  <text x="29" y="187" dy="2pt">3</text>
  <text x="43" y="187" dy="2pt">2</text>
  <text x="57" y="187" dy="2pt">4</text>
  <text x="15" y="201" dy="2pt">1</text>
  <text x="29" y="201" dy="2pt">2</text>
  <text x="43" y="201" dy="2pt">3</text>
  <text x="57" y="201" dy="2pt">4</text>
  <polyline stroke="Black" stroke-width="1" points="8,194 64,194" />
  <polyline stroke="Red" stroke-width="1" points="15,33 29,47 29,61 15,75 15,89 29,103 29,117 15,131 15,145 29,159 29,173 15,187 15,201" />
  <polyline stroke="Blue" stroke-width="2" points="29,33 15,47 15,61 29,75 43,89 57,103 43,117 57,131 57,145 43,159 57,173 43,187 29,201" />
</svg>